<svg width="24" height="24" viewBox="0 0 24 24" fill="none" xmlns="http://www.w3.org/2000/svg"><circle cx="12" cy="12" r="12" fill="white" fill-opacity="0.7"></circle><path fill-rule="evenodd" clip-rule="evenodd" d="M6.19507 7.18752C6.35684 6.97722 6.65845 6.93788 6.86875 7.09965L19.359 16.7075C19.5693 16.8693 19.6086 17.1709 19.4468 17.3812C19.2851 17.5915 18.9835 17.6308 18.7732 17.469L6.28294 7.86119C6.07265 7.69942 6.03331 7.39781 6.19507 7.18752Z" fill="black"></path><path fill-rule="evenodd" clip-rule="evenodd" d="M7.69247 7.72613C6.11609 8.31764 5 9.8353 5 11.6233C5 13.9292 6.85624 15.7624 9.16213 15.7624C10.1882 15.7624 11.1798 15.405 11.9638 14.644C12.0445 14.5633 12.0675 14.4134 11.9753 14.3327L11.2605 13.5948C11.1913 13.5257 11.0645 13.5141 10.9722 13.5948C10.488 13.9868 9.90001 14.252 9.20824 14.252C7.73248 14.252 6.62565 13.0299 6.62565 11.5887C6.62565 10.136 7.72095 8.90236 9.19671 8.90236C9.20505 8.90236 9.21339 8.9024 9.22173 8.90249L7.69247 7.72613ZM12.7576 11.6224C12.7576 11.6227 12.7576 11.623 12.7576 11.6233C12.7576 13.9292 14.6138 15.7624 16.9197 15.7624C17.2761 15.7624 17.6282 15.7193 17.969 15.6311L15.8346 13.9893C15.5377 13.8417 15.2753 13.6377 15.0581 13.392L12.7576 11.6224ZM14.3842 11.6614L12.9035 10.5225C13.3839 8.75421 14.9952 7.46118 16.9197 7.46118C18.0842 7.46118 18.9258 7.83012 19.7098 8.53342C19.8136 8.62565 19.8136 8.76401 19.7214 8.85624L19.0181 9.5826C18.9374 9.67483 18.8221 9.67483 18.7298 9.5826C18.2456 9.15601 17.6 8.90236 16.9543 8.90236C15.4785 8.90236 14.3832 10.136 14.3832 11.5887C14.3832 11.613 14.3836 11.6373 14.3842 11.6614ZM17.6384 14.1647L18.9912 15.2053C19.2492 15.0514 19.494 14.8647 19.7214 14.644C19.8021 14.5633 19.8251 14.4134 19.7329 14.3327L19.0181 13.5948C18.9489 13.5257 18.8221 13.5141 18.7298 13.5948C18.411 13.8529 18.0472 14.0561 17.6384 14.1647ZM11.4403 9.39691L8.9319 7.46738C9.0081 7.46327 9.08486 7.46118 9.16213 7.46118C10.3266 7.46118 11.1682 7.83012 11.9522 8.53342C12.056 8.62565 12.056 8.76401 11.9638 8.85624L11.4403 9.39691Z" fill="black"></path></svg>