<svg width="24" height="24" viewBox="0 0 24 24" fill="none" xmlns="http://www.w3.org/2000/svg"><circle opacity="0.7" cx="12" cy="12" r="12" fill="white"></circle><path fill-rule="evenodd" clip-rule="evenodd" d="M5.69749 8.116L7.14745 9.22713H5.75C5.33579 9.22713 5 9.56571 5 9.98337V14.0166C5 14.4343 5.33579 14.7729 5.75 14.7729H7.81213L11.2561 17.8114C11.7411 18.2393 12.5 17.892 12.5 17.2423V13.3289L13.6757 14.2299C13.6074 14.4297 13.5289 14.624 13.441 14.812C13.3236 15.0633 13.3962 15.3702 13.6295 15.5181C13.8755 15.6742 14.2027 15.5929 14.3268 15.3278C14.3958 15.1804 14.46 15.0298 14.5192 14.8763L15.3566 15.518C15.2998 15.6543 15.2396 15.7884 15.1761 15.9203C15.0567 16.1679 15.1313 16.4709 15.3624 16.6175C15.6103 16.7749 15.9397 16.691 16.0672 16.425C16.1096 16.3365 16.1507 16.2472 16.1904 16.1569L17.0218 16.794C16.986 16.8719 16.9493 16.9491 16.9118 17.0258C16.7915 17.2713 16.8671 17.5723 17.0969 17.7181C17.346 17.8761 17.6766 17.7907 17.8061 17.5243C17.8213 17.4929 17.8365 17.4614 17.8515 17.4298L18.1975 17.695C18.4173 17.8635 18.731 17.8203 18.8981 17.5987C19.0652 17.377 19.0224 17.0607 18.8026 16.8922L6.30257 7.31322C6.08271 7.14474 5.76904 7.18787 5.60195 7.40955C5.43486 7.63123 5.47763 7.94752 5.69749 8.116ZM11.5 16.6868V12.5626L8.30885 10.1171C8.18914 10.194 8.04953 10.2354 7.90607 10.2354H6V13.7646H7.90607C8.08773 13.7646 8.26323 13.831 8.39994 13.9517L11.5 16.6868Z" fill="black"></path><path d="M11.5 10.0357V7.31323L9.8486 8.77022L9.0359 8.14743L11.2561 6.18858C11.7411 5.76073 12.5 6.10798 12.5 6.75771V10.802L11.5 10.0357Z" fill="black"></path><path d="M15 12.2591C15 12.4098 14.9955 12.5594 14.9866 12.7076L13.9922 11.9455C13.951 11.1242 13.7489 10.3505 13.4205 9.66265C13.2994 9.4091 13.3731 9.0973 13.6106 8.94957C13.8551 8.79753 14.1776 8.87794 14.3024 9.1388C14.7477 10.0696 15 11.1317 15 12.2591Z" fill="black"></path><path d="M16.8248 14.1162C16.9396 13.5173 16.9999 12.8961 16.9999 12.2592C16.9999 10.7404 16.6565 9.31061 16.0513 8.06036C15.9239 7.79726 15.5983 7.71338 15.3512 7.86708C15.1165 8.01298 15.0405 8.31945 15.162 8.56894C15.6965 9.66677 15.9999 10.9236 15.9999 12.2592C15.9999 12.6551 15.9733 13.0442 15.9218 13.4242L16.8248 14.1162Z" fill="black"></path><path d="M19 12.263C18.9996 13.3744 18.8522 14.4475 18.5781 15.4598L17.708 14.793C17.8985 13.9838 18 13.1346 18 12.2592C18 10.5276 17.6032 8.8989 16.9052 7.47901C16.7836 7.2318 16.8609 6.92833 17.0938 6.78349C17.3425 6.62886 17.6699 6.71485 17.7988 6.97916C18.5644 8.54837 18.9994 10.3455 19 12.2553V12.263Z" fill="black"></path></svg>